<svg xmlns="http://www.w3.org/2000/svg" viewBox="0 0 48 48" width="64" height="64">
  <circle cx="24" cy="24" r="24" fill="#5865F2"/>
  <path d="M33.6 16.2c-1.8-.8-3.7-1.4-5.7-1.7-.2.4-.5.9-.7 1.3-2.1-.3-4.2-.3-6.3 0-.2-.4-.5-.9-.7-1.3-2 .3-3.9.9-5.7 1.7C11 22 10.1 27.6 10.5 33.1c2.4 1.7 4.7 2.8 7 3.5.6-.8 1.1-1.6 1.5-2.5-.8-.3-1.6-.7-2.3-1.1.2-.1.4-.3.5-.4 4.2 1.9 8.7 1.9 12.8 0 .2.1.4.3.5.4-.7.4-1.5.8-2.3 1.1.4.9.9 1.7 1.5 2.5 2.3-.7 4.6-1.8 7-3.5.5-6.2-.9-11.7-4.6-16.9zM19.3 29.5c-1.5 0-2.7-1.3-2.7-3s1.2-3 2.7-3 2.7 1.3 2.7 3-1.2 3-2.7 3zm9.4 0c-1.5 0-2.7-1.3-2.7-3s1.2-3 2.7-3 2.7 1.3 2.7 3-1.2 3-2.7 3z" fill="#fff"/>
</svg>
